<svg width="340" height="441" viewBox="0 0 340 441" fill="none" xmlns="http://www.w3.org/2000/svg">
<rect y="0.992432" width="340" height="440" rx="10" fill="white"/>
<path d="M151.25 206.409V235.576C151.25 237.867 153.104 239.742 155.417 239.742H184.583C186.875 239.742 188.75 237.867 188.75 235.576V206.409C188.75 204.117 186.875 202.242 184.583 202.242H155.417C153.104 202.242 151.25 204.117 151.25 206.409ZM176.25 214.742C176.25 218.201 173.458 220.992 170 220.992C166.542 220.992 163.75 218.201 163.75 214.742C163.75 211.284 166.542 208.492 170 208.492C173.458 208.492 176.25 211.284 176.25 214.742ZM157.5 231.409C157.5 227.242 165.833 224.951 170 224.951C174.167 224.951 182.5 227.242 182.5 231.409V233.492H157.5V231.409Z" fill="#58968B"/>
</svg>

